# xmcd
#
# Track frame offsets:
#	150
#	15036
#	36193
#	53176
#	72328
#	96539
#	107427
#	124417
#	144826
#	164722
#	197994
#
# Disc length: 2931 seconds
#
# Revision: 2
# Processed by: cddbd v1.5.1PL0 Copyright (c) Steve Scherf et al.
# Submitted via: EasyCDDAExtractor 6.2.0.3
#
DISCID=990b710b
DTITLE=Seree Lee - Metal Dream Shmphony
DYEAR=2004
DGENRE=Instrumental Rock
TTITLE0=Frankenstein
TTITLE1=The Hunter
TTITLE2=Holiday
TTITLE3=The Prayer
TTITLE4=Dizzy Rocket
TTITLE5=Head to Head
TTITLE6=Mystery A-Minor
TTITLE7=The Happyland
TTITLE8=Differences
TTITLE9=Franken Dances
TTITLE10=Silent Tears
EXTD=
EXTT0=
EXTT1=
EXTT2=
EXTT3=
EXTT4=
EXTT5=
EXTT6=
EXTT7=
EXTT8=
EXTT9=
EXTT10=
PLAYORDER=
